<?xml version="1.0" encoding="UTF-8" standalone="no"?>
<!DOCTYPE svg PUBLIC "-//W3C//DTD SVG 1.1//EN"
 "http://www.w3.org/Graphics/SVG/1.1/DTD/svg11.dtd">
<!-- Generated by graphviz version 2.43.0 (0)
 -->
<!-- Title: cli_template Pages: 1 -->
<svg width="1263pt" height="844pt"
 viewBox="0.00 0.00 1263.00 844.29" xmlns="http://www.w3.org/2000/svg" xmlns:xlink="http://www.w3.org/1999/xlink">
<g id="graph0" class="graph" transform="scale(1 1) rotate(0) translate(4 840.29)">
<title>cli_template</title>
<polygon fill="white" stroke="transparent" points="-4,4 -4,-840.29 1259,-840.29 1259,4 -4,4"/>
<text text-anchor="middle" x="627.5" y="-821.09" font-family="Times,serif" font-size="14.00">CLI template</text>
<g id="clust1" class="cluster">
<title>cluster_0</title>
<polygon fill="none" stroke="black" points="8,-522 8,-720 252,-720 252,-522 8,-522"/>
<text text-anchor="middle" x="130" y="-704.8" font-family="Times,serif" font-size="14.00">Launcher (bin)</text>
</g>
<g id="clust2" class="cluster">
<title>cluster_1</title>
<polygon fill="none" stroke="black" points="260,-309 260,-597 712,-597 712,-309 260,-309"/>
<text text-anchor="middle" x="486" y="-581.8" font-family="Times,serif" font-size="14.00">Configurator</text>
</g>
<g id="clust3" class="cluster">
<title>cluster_2</title>
<polygon fill="none" stroke="black" points="833,-419 833,-597 1094,-597 1094,-419 833,-419"/>
<text text-anchor="middle" x="963.5" y="-581.8" font-family="Times,serif" font-size="14.00">Dispatcher</text>
</g>
<g id="clust4" class="cluster">
<title>cluster_3</title>
<polygon fill="none" stroke="black" points="720,-220 720,-385 1105,-385 1105,-220 720,-220"/>
<text text-anchor="middle" x="912.5" y="-369.8" font-family="Times,serif" font-size="14.00">Services</text>
</g>
<g id="clust5" class="cluster">
<title>cluster_4</title>
<polygon fill="none" stroke="black" points="366,-9 366,-187 584,-187 584,-9 366,-9"/>
<text text-anchor="middle" x="475" y="-171.8" font-family="Times,serif" font-size="14.00">Logging</text>
<text text-anchor="middle" x="475" y="-156.8" font-family="Times,serif" font-size="14.00">(Local)</text>
</g>
<g id="clust6" class="cluster">
<title>cluster_5</title>
<polygon fill="none" stroke="black" points="592,-8 592,-187 856,-187 856,-8 592,-8"/>
<text text-anchor="middle" x="724" y="-171.8" font-family="Times,serif" font-size="14.00">Telemetry [Metrics</text>
<text text-anchor="middle" x="724" y="-156.8" font-family="Times,serif" font-size="14.00">and Logging(if possible)]</text>
</g>
<g id="clust7" class="cluster">
<title>cluster_6</title>
<polygon fill="none" stroke="black" points="864,-9 864,-172 974,-172 974,-9 864,-9"/>
<text text-anchor="middle" x="919" y="-156.8" font-family="Times,serif" font-size="14.00">LocalStorage</text>
</g>
<g id="clust8" class="cluster">
<title>cluster_7</title>
<polygon fill="none" stroke="black" points="982,-9 982,-172 1217,-172 1217,-9 982,-9"/>
<text text-anchor="middle" x="1099.5" y="-156.8" font-family="Times,serif" font-size="14.00">RemoteSync(for LocalStorage)</text>
</g>
<g id="clust9" class="cluster">
<title>cluster_8</title>
<polygon fill="none" stroke="blue" points="1113,-310 1113,-385 1241,-385 1241,-310 1113,-310"/>
<text text-anchor="middle" x="1177" y="-369.8" font-family="Times,serif" font-size="14.00">Program</text>
</g>
<!-- start -->
<g id="node1" class="node">
<title>start</title>
<ellipse fill="none" stroke="black" cx="202" cy="-780.15" rx="33.29" ry="33.29"/>
<text text-anchor="middle" x="202" y="-776.45" font-family="Times,serif" font-size="14.00">start</text>
</g>
<!-- launcher_main -->
<g id="node2" class="node">
<title>launcher_main</title>
<polygon fill="none" stroke="black" points="243.5,-689 160.5,-689 160.5,-653 243.5,-653 243.5,-689"/>
<text text-anchor="middle" x="202" y="-667.3" font-family="Times,serif" font-size="14.00">Launcher</text>
</g>
<!-- start&#45;&gt;launcher_main -->
<g id="edge1" class="edge">
<title>start&#45;&gt;launcher_main</title>
<path fill="none" stroke="black" d="M202,-747C202,-731.87 202,-714.01 202,-699.52"/>
<polygon fill="black" stroke="black" points="205.5,-699.19 202,-689.19 198.5,-699.19 205.5,-699.19"/>
</g>
<!-- configurator_main -->
<g id="node3" class="node">
<title>configurator_main</title>
<polygon fill="none" stroke="black" points="409.5,-566 268.5,-566 268.5,-530 409.5,-530 409.5,-566"/>
<text text-anchor="middle" x="339" y="-544.3" font-family="Times,serif" font-size="14.00">Get configuration</text>
</g>
<!-- launcher_main&#45;&gt;configurator_main -->
<g id="edge2" class="edge">
<title>launcher_main&#45;&gt;configurator_main</title>
<path fill="none" stroke="black" d="M221.34,-652.92C244.87,-632.14 284.75,-596.91 311.48,-573.31"/>
<polygon fill="black" stroke="black" points="314.14,-575.63 319.32,-566.38 309.5,-570.38 314.14,-575.63"/>
<text text-anchor="middle" x="286" y="-616.3" font-family="Times,serif" font-size="14.00">#1</text>
</g>
<!-- dispatcher_main -->
<g id="node4" class="node">
<title>dispatcher_main</title>
<polygon fill="none" stroke="black" points="950,-566 848,-566 848,-530 950,-530 950,-566"/>
<text text-anchor="middle" x="899" y="-544.3" font-family="Times,serif" font-size="14.00">Dispatching</text>
</g>
<!-- launcher_main&#45;&gt;dispatcher_main -->
<g id="edge4" class="edge">
<title>launcher_main&#45;&gt;dispatcher_main</title>
<path fill="none" stroke="black" d="M243.64,-666.02C331.55,-657.19 542.3,-633.8 716,-597 756.97,-588.32 802.53,-576.38 837.94,-566.58"/>
<polygon fill="black" stroke="black" points="838.95,-569.93 847.65,-563.87 837.07,-563.19 838.95,-569.93"/>
<text text-anchor="middle" x="753" y="-623.8" font-family="Times,serif" font-size="14.00">#3</text>
<text text-anchor="middle" x="753" y="-608.8" font-family="Times,serif" font-size="14.00">(struct Configuration)</text>
</g>
<!-- launcher_parse_args -->
<g id="node16" class="node">
<title>launcher_parse_args</title>
<polygon fill="none" stroke="black" points="108,-566 16,-566 16,-530 108,-530 108,-566"/>
<text text-anchor="middle" x="62" y="-544.3" font-family="Times,serif" font-size="14.00">Parse args</text>
</g>
<!-- launcher_main&#45;&gt;launcher_parse_args -->
<g id="edge11" class="edge">
<title>launcher_main&#45;&gt;launcher_parse_args</title>
<path fill="none" stroke="black" d="M182.04,-652.93C164.79,-638.17 139.21,-616.23 117,-597 107.98,-589.19 98.15,-580.63 89.33,-572.93"/>
<polygon fill="black" stroke="black" points="91.4,-570.09 81.57,-566.14 86.79,-575.36 91.4,-570.09"/>
</g>
<!-- launcher_parse_envvars -->
<g id="node17" class="node">
<title>launcher_parse_envvars</title>
<polygon fill="none" stroke="black" points="243.5,-566 126.5,-566 126.5,-530 243.5,-530 243.5,-566"/>
<text text-anchor="middle" x="185" y="-544.3" font-family="Times,serif" font-size="14.00">Parse envvars</text>
</g>
<!-- launcher_main&#45;&gt;launcher_parse_envvars -->
<g id="edge12" class="edge">
<title>launcher_main&#45;&gt;launcher_parse_envvars</title>
<path fill="none" stroke="black" d="M199.6,-652.92C196.81,-633.04 192.15,-599.92 188.85,-576.42"/>
<polygon fill="black" stroke="black" points="192.3,-575.8 187.44,-566.38 185.37,-576.77 192.3,-575.8"/>
</g>
<!-- configurator_main&#45;&gt;launcher_main -->
<g id="edge3" class="edge">
<title>configurator_main&#45;&gt;launcher_main</title>
<path fill="none" stroke="black" d="M335.67,-566.24C331.07,-585.52 321,-616.47 301,-635 287.81,-647.22 270.09,-655.22 253.28,-660.44"/>
<polygon fill="black" stroke="black" points="252.2,-657.11 243.53,-663.2 254.11,-663.84 252.2,-657.11"/>
<text text-anchor="middle" x="400" y="-623.8" font-family="Times,serif" font-size="14.00">#2</text>
<text text-anchor="middle" x="400" y="-608.8" font-family="Times,serif" font-size="14.00">(struct Configuration)</text>
</g>
<!-- configurator_default_config -->
<g id="node18" class="node">
<title>configurator_default_config</title>
<polygon fill="none" stroke="black" points="384,-463 268,-463 268,-427 384,-427 384,-463"/>
<text text-anchor="middle" x="326" y="-441.3" font-family="Times,serif" font-size="14.00">Default config</text>
</g>
<!-- configurator_main&#45;&gt;configurator_default_config -->
<g id="edge13" class="edge">
<title>configurator_main&#45;&gt;configurator_default_config</title>
<path fill="none" stroke="black" d="M336.79,-529.87C334.8,-514.34 331.82,-491.2 329.5,-473.16"/>
<polygon fill="black" stroke="black" points="332.96,-472.69 328.22,-463.22 326.02,-473.58 332.96,-472.69"/>
<text text-anchor="middle" x="346" y="-493.3" font-family="Times,serif" font-size="14.00">#1</text>
</g>
<!-- configurator_parse_configfile -->
<g id="node19" class="node">
<title>configurator_parse_configfile</title>
<polygon fill="none" stroke="black" points="530,-463 402,-463 402,-427 530,-427 530,-463"/>
<text text-anchor="middle" x="466" y="-441.3" font-family="Times,serif" font-size="14.00">Parse Configfile</text>
</g>
<!-- configurator_main&#45;&gt;configurator_parse_configfile -->
<g id="edge14" class="edge">
<title>configurator_main&#45;&gt;configurator_parse_configfile</title>
<path fill="none" stroke="black" stroke-dasharray="5,2" d="M360.54,-529.87C381.34,-513.33 413.01,-488.14 436.22,-469.68"/>
<polygon fill="black" stroke="black" points="438.7,-472.18 444.35,-463.22 434.35,-466.7 438.7,-472.18"/>
<text text-anchor="middle" x="457" y="-500.8" font-family="Times,serif" font-size="14.00">#2</text>
<text text-anchor="middle" x="457" y="-485.8" font-family="Times,serif" font-size="14.00">(if defined)</text>
</g>
<!-- configurator_apply_config_from_launcher -->
<g id="node21" class="node">
<title>configurator_apply_config_from_launcher</title>
<polygon fill="none" stroke="black" points="704,-464 548,-464 548,-426 704,-426 704,-464"/>
<text text-anchor="middle" x="626" y="-448.8" font-family="Times,serif" font-size="14.00">Apply configuration</text>
<text text-anchor="middle" x="626" y="-433.8" font-family="Times,serif" font-size="14.00"> (from launcher)</text>
</g>
<!-- configurator_main&#45;&gt;configurator_apply_config_from_launcher -->
<g id="edge16" class="edge">
<title>configurator_main&#45;&gt;configurator_apply_config_from_launcher</title>
<path fill="none" stroke="black" d="M409.9,-535.85C438.38,-530.27 471.23,-522.45 500,-512 530.87,-500.79 563.68,-483.41 588.07,-469.3"/>
<polygon fill="black" stroke="black" points="590.13,-472.15 596.99,-464.07 586.59,-466.11 590.13,-472.15"/>
<text text-anchor="middle" x="575" y="-493.3" font-family="Times,serif" font-size="14.00">#3</text>
</g>
<!-- dispatcher_start_services -->
<g id="node5" class="node">
<title>dispatcher_start_services</title>
<polygon fill="none" stroke="black" points="957,-463 841,-463 841,-427 957,-427 957,-463"/>
<text text-anchor="middle" x="899" y="-441.3" font-family="Times,serif" font-size="14.00">Start services</text>
</g>
<!-- dispatcher_main&#45;&gt;dispatcher_start_services -->
<g id="edge17" class="edge">
<title>dispatcher_main&#45;&gt;dispatcher_start_services</title>
<path fill="none" stroke="black" d="M899,-529.87C899,-514.41 899,-491.42 899,-473.41"/>
<polygon fill="black" stroke="black" points="902.5,-473.22 899,-463.22 895.5,-473.22 902.5,-473.22"/>
<text text-anchor="middle" x="910" y="-493.3" font-family="Times,serif" font-size="14.00">#1</text>
</g>
<!-- dispatcher_run_program -->
<g id="node7" class="node">
<title>dispatcher_run_program</title>
<polygon fill="none" stroke="black" points="1086.5,-463 975.5,-463 975.5,-427 1086.5,-427 1086.5,-463"/>
<text text-anchor="middle" x="1031" y="-441.3" font-family="Times,serif" font-size="14.00">Run program</text>
</g>
<!-- dispatcher_main&#45;&gt;dispatcher_run_program -->
<g id="edge18" class="edge">
<title>dispatcher_main&#45;&gt;dispatcher_run_program</title>
<path fill="none" stroke="black" d="M921.39,-529.87C943.11,-513.25 976.22,-487.92 1000.36,-469.44"/>
<polygon fill="black" stroke="black" points="1002.68,-472.07 1008.5,-463.22 998.43,-466.51 1002.68,-472.07"/>
<text text-anchor="middle" x="991" y="-493.3" font-family="Times,serif" font-size="14.00">#2</text>
</g>
<!-- services_main -->
<g id="node6" class="node">
<title>services_main</title>
<polygon fill="none" stroke="black" points="926,-354 872,-354 872,-318 926,-318 926,-354"/>
<text text-anchor="middle" x="899" y="-332.3" font-family="Times,serif" font-size="14.00">Start</text>
</g>
<!-- dispatcher_start_services&#45;&gt;services_main -->
<g id="edge5" class="edge">
<title>dispatcher_start_services&#45;&gt;services_main</title>
<path fill="none" stroke="black" d="M899,-426.81C899,-409.96 899,-384.02 899,-364.34"/>
<polygon fill="black" stroke="black" points="902.5,-364.15 899,-354.15 895.5,-364.15 902.5,-364.15"/>
<text text-anchor="middle" x="977" y="-396.8" font-family="Times,serif" font-size="14.00">(struct Configuration)</text>
</g>
<!-- services_monitoring -->
<g id="node9" class="node">
<title>services_monitoring</title>
<polygon fill="none" stroke="black" points="824,-265 728,-265 728,-229 824,-229 824,-265"/>
<text text-anchor="middle" x="776" y="-243.3" font-family="Times,serif" font-size="14.00">Monitoring</text>
</g>
<!-- services_main&#45;&gt;services_monitoring -->
<g id="edge19" class="edge">
<title>services_main&#45;&gt;services_monitoring</title>
<path fill="none" stroke="black" stroke-dasharray="5,2" d="M871.93,-323.66C858.19,-317.33 841.59,-308.75 828,-299 817.41,-291.4 806.91,-281.64 798.15,-272.71"/>
<polygon fill="black" stroke="black" points="800.67,-270.28 791.24,-265.46 795.6,-275.11 800.67,-270.28"/>
<text text-anchor="middle" x="861.5" y="-287.8" font-family="Times,serif" font-size="14.00">if defined</text>
</g>
<!-- services_storage_local -->
<g id="node12" class="node">
<title>services_storage_local</title>
<polygon fill="none" stroke="black" points="955.5,-265 842.5,-265 842.5,-229 955.5,-229 955.5,-265"/>
<text text-anchor="middle" x="899" y="-243.3" font-family="Times,serif" font-size="14.00">Local storage</text>
</g>
<!-- services_main&#45;&gt;services_storage_local -->
<g id="edge20" class="edge">
<title>services_main&#45;&gt;services_storage_local</title>
<path fill="none" stroke="black" stroke-dasharray="5,2" d="M899,-317.81C899,-305.66 899,-289.11 899,-275.18"/>
<polygon fill="black" stroke="black" points="902.5,-275.15 899,-265.15 895.5,-275.15 902.5,-275.15"/>
<text text-anchor="middle" x="932.5" y="-287.8" font-family="Times,serif" font-size="14.00">if defined</text>
</g>
<!-- services_storage_remote_sync -->
<g id="node14" class="node">
<title>services_storage_remote_sync</title>
<polygon fill="none" stroke="black" points="1096.5,-266 973.5,-266 973.5,-228 1096.5,-228 1096.5,-266"/>
<text text-anchor="middle" x="1035" y="-250.8" font-family="Times,serif" font-size="14.00">Remote sync</text>
<text text-anchor="middle" x="1035" y="-235.8" font-family="Times,serif" font-size="14.00">(Local storage)</text>
</g>
<!-- services_main&#45;&gt;services_storage_remote_sync -->
<g id="edge21" class="edge">
<title>services_main&#45;&gt;services_storage_remote_sync</title>
<path fill="none" stroke="black" stroke-dasharray="5,2" d="M926.32,-322.7C939.81,-316.24 956.13,-307.84 970,-299 982.34,-291.14 995.16,-281.45 1006.13,-272.63"/>
<polygon fill="black" stroke="black" points="1008.59,-275.14 1014.11,-266.1 1004.16,-269.72 1008.59,-275.14"/>
<text text-anchor="middle" x="1023.5" y="-287.8" font-family="Times,serif" font-size="14.00">if defined</text>
</g>
<!-- program_main -->
<g id="node8" class="node">
<title>program_main</title>
<polygon fill="none" stroke="black" points="1233,-354 1121,-354 1121,-318 1233,-318 1233,-354"/>
<text text-anchor="middle" x="1177" y="-332.3" font-family="Times,serif" font-size="14.00">program::run</text>
</g>
<!-- dispatcher_run_program&#45;&gt;program_main -->
<g id="edge6" class="edge">
<title>dispatcher_run_program&#45;&gt;program_main</title>
<path fill="none" stroke="black" d="M1054.46,-426.81C1079.15,-408.71 1118.16,-380.12 1145.51,-360.08"/>
<polygon fill="black" stroke="black" points="1147.6,-362.88 1153.6,-354.15 1143.47,-357.24 1147.6,-362.88"/>
<text text-anchor="middle" x="1177" y="-396.8" font-family="Times,serif" font-size="14.00">(struct Configuration)</text>
</g>
<!-- logger_main -->
<g id="node10" class="node">
<title>logger_main</title>
<polygon fill="none" stroke="black" points="536,-141 482,-141 482,-105 536,-105 536,-141"/>
<text text-anchor="middle" x="509" y="-119.3" font-family="Times,serif" font-size="14.00">Start</text>
</g>
<!-- services_monitoring&#45;&gt;logger_main -->
<g id="edge7" class="edge">
<title>services_monitoring&#45;&gt;logger_main</title>
<path fill="none" stroke="black" stroke-dasharray="5,2" d="M727.72,-236.05C688.55,-226.77 632.7,-210.77 588,-187 568.4,-176.58 548.87,-161.06 534.13,-148.04"/>
<polygon fill="black" stroke="black" points="536.23,-145.22 526.47,-141.11 531.54,-150.41 536.23,-145.22"/>
<text text-anchor="middle" x="671.5" y="-198.8" font-family="Times,serif" font-size="14.00">if defined</text>
</g>
<!-- telemetry_main -->
<g id="node11" class="node">
<title>telemetry_main</title>
<polygon fill="none" stroke="black" points="803,-141 749,-141 749,-105 803,-105 803,-141"/>
<text text-anchor="middle" x="776" y="-119.3" font-family="Times,serif" font-size="14.00">Start</text>
</g>
<!-- services_monitoring&#45;&gt;telemetry_main -->
<g id="edge8" class="edge">
<title>services_monitoring&#45;&gt;telemetry_main</title>
<path fill="none" stroke="black" stroke-dasharray="5,2" d="M776,-228.78C776,-208.62 776,-174.96 776,-151.25"/>
<polygon fill="black" stroke="black" points="779.5,-151.13 776,-141.13 772.5,-151.13 779.5,-151.13"/>
<text text-anchor="middle" x="809.5" y="-198.8" font-family="Times,serif" font-size="14.00">if defined</text>
</g>
<!-- logger_start_stdout_log -->
<g id="node22" class="node">
<title>logger_start_stdout_log</title>
<polygon fill="none" stroke="black" points="436,-53 374,-53 374,-17 436,-17 436,-53"/>
<text text-anchor="middle" x="405" y="-31.3" font-family="Times,serif" font-size="14.00">stdout</text>
</g>
<!-- logger_main&#45;&gt;logger_start_stdout_log -->
<g id="edge22" class="edge">
<title>logger_main&#45;&gt;logger_start_stdout_log</title>
<path fill="none" stroke="black" stroke-dasharray="5,2" d="M482,-111.71C468.72,-105.8 453.02,-97.45 441,-87 432.78,-79.85 425.47,-70.46 419.61,-61.68"/>
<polygon fill="black" stroke="black" points="422.57,-59.8 414.27,-53.22 416.65,-63.54 422.57,-59.8"/>
<text text-anchor="middle" x="474.5" y="-75.8" font-family="Times,serif" font-size="14.00">if defined</text>
</g>
<!-- logger_start_logger_log -->
<g id="node23" class="node">
<title>logger_start_logger_log</title>
<polygon fill="none" stroke="black" points="576,-53 454,-53 454,-17 576,-17 576,-53"/>
<text text-anchor="middle" x="515" y="-31.3" font-family="Times,serif" font-size="14.00">logger (syslog)</text>
</g>
<!-- logger_main&#45;&gt;logger_start_logger_log -->
<g id="edge23" class="edge">
<title>logger_main&#45;&gt;logger_start_logger_log</title>
<path fill="none" stroke="black" stroke-dasharray="5,2" d="M510.21,-104.6C511.04,-92.75 512.15,-76.82 513.1,-63.29"/>
<polygon fill="black" stroke="black" points="516.6,-63.3 513.81,-53.08 509.62,-62.82 516.6,-63.3"/>
<text text-anchor="middle" x="546.5" y="-75.8" font-family="Times,serif" font-size="14.00">if defined</text>
</g>
<!-- telemetry_start_prometheus_collector -->
<g id="node24" class="node">
<title>telemetry_start_prometheus_collector</title>
<polygon fill="none" stroke="black" points="703.5,-54 600.5,-54 600.5,-16 703.5,-16 703.5,-54"/>
<text text-anchor="middle" x="652" y="-38.8" font-family="Times,serif" font-size="14.00">Prometheus</text>
<text text-anchor="middle" x="652" y="-23.8" font-family="Times,serif" font-size="14.00">(collector)</text>
</g>
<!-- telemetry_main&#45;&gt;telemetry_start_prometheus_collector -->
<g id="edge24" class="edge">
<title>telemetry_main&#45;&gt;telemetry_start_prometheus_collector</title>
<path fill="none" stroke="black" stroke-dasharray="5,2" d="M748.71,-109.66C736.19,-103.53 721.41,-95.59 709,-87 698.08,-79.44 687,-70 677.54,-61.31"/>
<polygon fill="black" stroke="black" points="679.7,-58.54 670.02,-54.24 674.91,-63.64 679.7,-58.54"/>
<text text-anchor="middle" x="742.5" y="-75.8" font-family="Times,serif" font-size="14.00">if defined</text>
</g>
<!-- telemetry_start_opentelemetry_collector -->
<g id="node25" class="node">
<title>telemetry_start_opentelemetry_collector</title>
<polygon fill="none" stroke="black" points="848,-54 722,-54 722,-16 848,-16 848,-54"/>
<text text-anchor="middle" x="785" y="-38.8" font-family="Times,serif" font-size="14.00">OpenTelemetry</text>
<text text-anchor="middle" x="785" y="-23.8" font-family="Times,serif" font-size="14.00">(collector)</text>
</g>
<!-- telemetry_main&#45;&gt;telemetry_start_opentelemetry_collector -->
<g id="edge25" class="edge">
<title>telemetry_main&#45;&gt;telemetry_start_opentelemetry_collector</title>
<path fill="none" stroke="black" stroke-dasharray="5,2" d="M777.82,-104.6C779.03,-93.06 780.64,-77.65 782.03,-64.36"/>
<polygon fill="black" stroke="black" points="785.53,-64.58 783.09,-54.27 778.57,-63.85 785.53,-64.58"/>
<text text-anchor="middle" x="815.5" y="-75.8" font-family="Times,serif" font-size="14.00">if defined</text>
</g>
<!-- localstorage_main -->
<g id="node13" class="node">
<title>localstorage_main</title>
<polygon fill="none" stroke="black" points="926,-141 872,-141 872,-105 926,-105 926,-141"/>
<text text-anchor="middle" x="899" y="-119.3" font-family="Times,serif" font-size="14.00">Start</text>
</g>
<!-- services_storage_local&#45;&gt;localstorage_main -->
<g id="edge9" class="edge">
<title>services_storage_local&#45;&gt;localstorage_main</title>
<path fill="none" stroke="black" stroke-dasharray="5,2" d="M899,-228.78C899,-208.62 899,-174.96 899,-151.25"/>
<polygon fill="black" stroke="black" points="902.5,-151.13 899,-141.13 895.5,-151.13 902.5,-151.13"/>
<text text-anchor="middle" x="932.5" y="-198.8" font-family="Times,serif" font-size="14.00">if defined</text>
</g>
<!-- localstorage_sqlite -->
<g id="node26" class="node">
<title>localstorage_sqlite</title>
<polygon fill="none" stroke="black" points="937.5,-53 872.5,-53 872.5,-17 937.5,-17 937.5,-53"/>
<text text-anchor="middle" x="905" y="-31.3" font-family="Times,serif" font-size="14.00">SQLite</text>
</g>
<!-- localstorage_main&#45;&gt;localstorage_sqlite -->
<g id="edge26" class="edge">
<title>localstorage_main&#45;&gt;localstorage_sqlite</title>
<path fill="none" stroke="black" stroke-dasharray="5,2" d="M900.21,-104.6C901.04,-92.75 902.15,-76.82 903.1,-63.29"/>
<polygon fill="black" stroke="black" points="906.6,-63.3 903.81,-53.08 899.62,-62.82 906.6,-63.3"/>
<text text-anchor="middle" x="936.5" y="-75.8" font-family="Times,serif" font-size="14.00">if defined</text>
</g>
<!-- localstorage_remotesync_main -->
<g id="node15" class="node">
<title>localstorage_remotesync_main</title>
<polygon fill="none" stroke="black" points="1066,-141 1012,-141 1012,-105 1066,-105 1066,-141"/>
<text text-anchor="middle" x="1039" y="-119.3" font-family="Times,serif" font-size="14.00">Start</text>
</g>
<!-- services_storage_remote_sync&#45;&gt;localstorage_remotesync_main -->
<g id="edge10" class="edge">
<title>services_storage_remote_sync&#45;&gt;localstorage_remotesync_main</title>
<path fill="none" stroke="black" stroke-dasharray="5,2" d="M1035.59,-228C1036.25,-207.77 1037.34,-174.69 1038.11,-151.28"/>
<polygon fill="black" stroke="black" points="1041.6,-151.39 1038.43,-141.29 1034.61,-151.17 1041.6,-151.39"/>
<text text-anchor="middle" x="1069.5" y="-198.8" font-family="Times,serif" font-size="14.00">if defined</text>
</g>
<!-- localstorage_remotesync_postgresql -->
<g id="node27" class="node">
<title>localstorage_remotesync_postgresql</title>
<polygon fill="none" stroke="black" points="1091.5,-53 990.5,-53 990.5,-17 1091.5,-17 1091.5,-53"/>
<text text-anchor="middle" x="1041" y="-31.3" font-family="Times,serif" font-size="14.00">PostgreSQL</text>
</g>
<!-- localstorage_remotesync_main&#45;&gt;localstorage_remotesync_postgresql -->
<g id="edge27" class="edge">
<title>localstorage_remotesync_main&#45;&gt;localstorage_remotesync_postgresql</title>
<path fill="none" stroke="black" stroke-dasharray="5,2" d="M1039.4,-104.6C1039.68,-92.75 1040.05,-76.82 1040.37,-63.29"/>
<polygon fill="black" stroke="black" points="1043.87,-63.16 1040.6,-53.08 1036.87,-63 1043.87,-63.16"/>
<text text-anchor="middle" x="1073.5" y="-75.8" font-family="Times,serif" font-size="14.00">if defined</text>
</g>
<!-- configurator_apply_configfile -->
<g id="node20" class="node">
<title>configurator_apply_configfile</title>
<polygon fill="none" stroke="black" points="546.5,-355 385.5,-355 385.5,-317 546.5,-317 546.5,-355"/>
<text text-anchor="middle" x="466" y="-339.8" font-family="Times,serif" font-size="14.00">Apply configuration </text>
<text text-anchor="middle" x="466" y="-324.8" font-family="Times,serif" font-size="14.00"> (from configfile)</text>
</g>
<!-- configurator_parse_configfile&#45;&gt;configurator_apply_configfile -->
<g id="edge15" class="edge">
<title>configurator_parse_configfile&#45;&gt;configurator_apply_configfile</title>
<path fill="none" stroke="black" stroke-dasharray="5,2" d="M466,-426.81C466,-410.26 466,-384.94 466,-365.39"/>
<polygon fill="black" stroke="black" points="469.5,-365.22 466,-355.22 462.5,-365.22 469.5,-365.22"/>
<text text-anchor="middle" x="481.5" y="-396.8" font-family="Times,serif" font-size="14.00">if ok</text>
</g>
</g>
</svg>
